PathFileType	4	(X/Y/Z)	C:/Users/beibeiliu/ov580/test_trc/User2\sequence.13_training_dense_right.trc
DataRate	CameraRate	NumFrames	NumMarkers	Units	OrigDataRate	OrigDataStartFrame	OrigNumFrames
120	120	12	19	mm	120	295	336
Frame#	Time	ThumbCMC			ThumbMCP			ThumbIP			ThumbTip			IndexMCP			IndexPIP			IndexTip			MiddleMCP			MiddlePIP			MiddleTip			RingMCP			RingPIP			RingTip			PinkyMCP			PinkyPIP			PinkyTip			BackHand1			BackHand2			BackHand3	
		X0	Y0	Z0	X1	Y1	Z1	X2	Y2	Z2	X3	Y3	Z3	X4	Y4	Z4	X5	Y5	Z5	X6	Y6	Z6	X7	Y7	Z7	X8	Y8	Z8	X9	Y9	Z9	X10	Y10	Z10	X11	Y11	Z11	X12	Y12	Z12	X13	Y13	Z13	X14	Y14	Z14	X15	Y15	Z15	X16	Y16	Z16	X17	Y17	Z17	X18	Y18	Z18	
294	2.45	75.9498	12.1189	83.1506	42.5766	18.0763	71.6027	14.0167	8.90953	57.5465	-0.536536	-16.6857	42.7697	73.2583	-23.6781	7.05605	50.5973	-34.0944	-19.4551	21.1133	-41.2198	-14.8171	76.2466	-52.4399	4.64279	43.9177	-68.0704	-13.3197	9.06393	-70.9304	-0.0434298	57.8214	-68.7803	23.7795	24.7703	-71.3601	35.5476	28.7458	-49.765	63.7346	56.6674	-85.6443	49.2636	28.0467	-73.761	66.5048	40.8524	-48.2778	82.2912	107.463	-52.901	58.4094	123.823	-39.9356	90.3562	110.417	-12.6852	66.6819	
295	2.45833	84.4319	15.1484	81.4958	51.6947	21.3927	65.2828	21.2367	16.1289	48.5332	5.21126	-7.63803	36.8096	76.9771	-23.0226	5.04807	53.746	-34.0343	-21.3467	20.1331	-37.0671	-17.1194	75.5824	-51.3694	4.94938	46.3461	-64.1616	-15.612	8.89393	-62.6562	-4.02093	53.1246	-69.1997	22.7745	22.7009	-66.3769	30.5057	24.9636	-47.3228	61.5175	46.5039	-80.2682	47.3151	22.8664	-65.0316	62.8157	36.2663	-44.738	78.5446	103.197	-55.6747	62.0581	120.691	-48.0304	87.9405	111.623	-15.6531	63.0338	
296	2.46667	88.0127	9.88981	76.7127	57.1011	18.7502	60.7074	24.807	17.3098	39.5606	9.40908	-6.06557	29.878	80.1947	-26.7203	3.27671	60.7764	-36.7271	-21.6692	23.69	-37.2202	-19.3764	76.5999	-58.7061	3.22053	46.794	-66.1109	-17.1661	9.04996	-62.4094	-7.19126	51.5125	-70.5347	20.5062	21.458	-61.911	28.158	24.3633	-44.3405	55.6592	45.3421	-80.737	46.0704	21.3169	-66.9122	60.7894	37.0377	-42.4138	82.6305	102.576	-59.4597	63.9603	118.788	-54.7627	89.9727	115.272	-19.9523	63.7461	
297	2.475	88.1374	6.96626	78.2546	56.3732	16.889	57.6173	26.5186	14.1172	39.5506	8.64747	-9.97989	27.6461	81.6932	-34.9018	1.10427	63.0665	-40.2079	-21.4	23.8903	-41.1867	-20.858	78.137	-64.4885	2.39374	46.3916	-70.5196	-19.1774	12.6606	-70.9146	-7.19525	55.2396	-76.0486	23.1188	22.7625	-68.8008	26.7931	23.7335	-49.035	58.5159	49.0584	-84.7362	48.7891	21.3392	-69.127	60.667	34.2537	-48.409	79.5281	103.732	-65.2327	64.8219	119.298	-52.0955	90.4598	115.779	-23.434	64.6849	
298	2.48333	84.3106	5.88144	79.6913	51.9299	11.3375	61.5545	22.0554	4.45428	44.3264	3.54562	-14.6648	31.8063	77.5518	-38.5414	5.71277	54.7598	-45.4647	-21.7181	23.2953	-49.6412	-16.8826	76.2839	-67.273	7.26531	46.1072	-78.2388	-14.5653	9.80694	-75.509	-5.44667	52.1067	-81.252	26.7807	23.2227	-78.989	32.0203	23.4327	-53.6813	62.891	46.7073	-92.4526	53.2088	22.142	-74.7137	62.1243	34.2997	-53.0299	81.4479	101.66	-68.8114	65.3213	120.162	-54.5171	95.5377	109.724	-29.8442	67.2501	
299	2.49167	77.702	0.269319	83.5127	42.5177	7.15719	64.1248	14.0534	0.836973	52.6199	-4.97859	-23.0111	40.3484	69.977	-41.8012	11.1947	50.6208	-52.939	-13.2354	15.9573	-59.5678	-10.1367	68.8315	-73.8919	10.0638	41.6107	-87.7801	-4.99765	5.1384	-87.2745	4.17894	47.3587	-87.7675	32.6264	17.2905	-84.3763	41.4669	19.2591	-61.4651	69.6828	48.5749	-96.0773	60.7429	19.2239	-79.4578	71.9261	35.33	-57.2862	90.5217	101.381	-68.393	70.1673	117.032	-59.5101	95.4418	105.357	-28.4123	68.9001	
300	2.5	74.2972	-3.02957	86.3875	38.3316	6.21651	71.6158	5.79759	-2.01335	54.7819	-9.46534	-22.8725	49.6253	62.9945	-47.6573	13.6334	41.5214	-58.7861	-7.656	5.73177	-63.4575	-2.7775	62.2195	-76.4107	16.2892	34.4158	-89.0243	-0.194661	-3.28069	-92.4366	15.8915	43.2754	-91.9686	40.4254	11.5294	-89.3355	47.5776	13.3292	-64.3009	72.8108	38.6589	-100.928	66.0532	13.2957	-82.9108	82.4342	28.3853	-60.9713	95.7304	94.1441	-70.9693	70.0675	113.36	-58.9297	96.0322	100.619	-30.9823	70.0766	
301	2.50833	73.2094	2.10596	87.503	38.3597	5.30425	73.6816	5.33172	2.36343	59.4841	-10.9454	-23.4777	51.475	59.5793	-46.9903	16.0398	36.118	-57.925	-4.97727	1.31024	-62.7144	1.64688	56.6124	-79.3302	18.4312	25.7383	-89.6602	3.28725	-10.7737	-87.1958	19.7885	34.9889	-90.043	42.2609	6.85895	-85.7282	48.969	11.6059	-58.5523	76.1282	33.178	-96.2855	66.8346	9.59644	-83.1369	81.8855	27.2955	-56.608	100.933	89.9317	-72.5926	76.0695	111.926	-60.9632	101.316	96.3772	-37.4698	71.354	
302	2.51667	74.8253	-0.102068	88.9589	43.0179	9.47779	74.7218	10.9069	7.97433	58.2249	-6.39009	-12.2109	52.3207	61.909	-40.3363	17.5873	37.8744	-53.1981	-4.90864	2.51522	-52.4123	-0.594806	57.2151	-69.8712	20.2635	25.0476	-82.0947	1.76979	-11.4898	-76.3395	13.9482	33.068	-86.1901	40.3049	4.25095	-77.9382	49.3396	10.8483	-54.4629	76.751	30.5772	-91.7828	64.5166	5.12727	-75.207	79.4879	22.0541	-53.7045	97.1012	87.4159	-69.3156	73.2627	108.75	-59.4917	103.534	97.7247	-34.8924	72.7838	
303	2.525	79.3083	7.31553	89.7688	47.8338	17.4601	71.7306	16.2885	19.7481	52.9906	-2.9692	2.50556	43.7892	68.6677	-32.9275	16.5201	46.7889	-37.372	-11.4604	14.6828	-37.5762	-10.2192	61.3261	-62.6446	13.2265	30.1108	-64.4517	-9.00552	-3.9577	-59.4057	1.21065	39.4127	-73.0293	34.9468	5.63369	-66.2621	40.1297	11.5751	-42.8331	69.4106	28.6401	-84.939	56.535	5.52624	-66.7724	68.0495	21.0657	-41.7803	88.1031	86.144	-63.9505	70.1843	105.351	-57.9563	100.763	100.691	-27.4132	74.3299	
304	2.53333	83.5761	9.16561	89.6992	56.1029	24.231	70.7852	27.6916	25.7802	50.6163	7.73267	11.9419	39.5628	76.9901	-22.8116	9.41405	59.2384	-26.663	-14.4813	21.9112	-25.3782	-14.4286	69.2413	-51.5202	8.6972	40.8942	-56.1292	-13.9513	1.74745	-44.1744	-9.42362	40.6104	-62.2656	25.3648	9.52952	-51.9009	30.6204	12.325	-34.552	59.2447	31.5366	-76.7214	49.0206	7.56687	-58.1092	56.8122	17.3674	-39.9151	82.344	88.1522	-61.0276	68.6925	104.749	-57.7363	98.3907	106.934	-24.1576	74.6531	
305	2.54167	87.8568	11.5485	89.1343	62.7684	29.1972	71.5305	34.5256	30.3754	45.2596	14.9433	15.8317	32.6404	82.5062	-20.2562	11.0109	66.9019	-20.8926	-17.6243	31.9044	-16.9601	-21.5921	74.6405	-48.0024	9.45988	46.1674	-49.4008	-18.9424	11.416	-39.1592	-16.2955	43.4246	-59.3247	21.2105	16.4255	-48.5878	20.566	14.5569	-27.3121	51.6158	35.1797	-72.7006	47.6738	7.17668	-49.9008	53.6652	19.849	-31.7312	72.5873	89.5673	-59.9371	70.9018	103.651	-59.8144	98.8723	107.524	-23.2512	75.2249	
